inDegrees=yes
name=ik_XSDot_20240320_161737_orientations
DataType=double
version=3
OpenSimVersion=4.5-2024-01-10-34fd6af
endheader
time	pelvis_tilt	pelvis_list	pelvis_rotation	pelvis_tx	pelvis_ty	pelvis_tz	hip_flexion_r	hip_adduction_r	hip_rotation_r	knee_angle_r	knee_angle_r_beta	ankle_angle_r	subtalar_angle_r	mtp_angle_r	hip_flexion_l	hip_adduction_l	hip_rotation_l	knee_angle_l	knee_angle_l_beta	ankle_angle_l	subtalar_angle_l	mtp_angle_l	lumbar_extension	lumbar_bending	lumbar_rotation	arm_flex_r	arm_add_r	arm_rot_r	elbow_flex_r	pro_sup_r	wrist_flex_r	wrist_dev_r	arm_flex_l	arm_add_l	arm_rot_l	elbow_flex_l	pro_sup_l	wrist_flex_l	wrist_dev_l
2.829999999999984	-2.379427706579079	-10.42571121083879	178.4101763043208	0	0.9399999999999999	0	2.446889669958766	-6.818431455916202	27.99959807772183	0.08545784935716157	0.001491520842955789	-5.009065265518549	0	0	-9.250460778316722	2.363270332605582	-26.06411489459365	0.01596490105704892	0.0002786400882006267	-5.009065265518549	0	0	0	0	0	0	-12.96343129911652	0	74.72299770746518	45.19932929089018	0	0	0	-12.96343129911652	0	74.72299770746518	45.19932929089018	0	0
2.839999999999983	-2.366048561891022	-10.43003773635213	178.2097574079053	0	0.9399999999999999	0	2.468625558639032	-6.814218417578051	28.18565171242894	0.08430815459239759	0.001471454883917716	-5.009046081469013	0	0	-9.212972935316579	2.402504116906862	-26.25425369808113	0.01594704982198349	0.0002783285253731874	-5.009046081469013	0	0	0	0	0	0	-12.96396935879594	0	74.72313751064743	45.199064970753	0	0	0	-12.96396935879594	0	74.72313751064743	45.199064970753	0	0
2.849999999999983	-2.378021061588105	-10.44040588569382	177.9620781836056	0	0.9399999999999999	0	2.487190850964178	-6.810954075592695	28.43721637483016	0.08461374522827944	0.001476788446677117	-5.009020530765288	0	0	-9.213848216150124	2.449082306633329	-26.49156802463972	0.01591133494720188	0.0002777051832163109	-5.009020530765288	0	0	0	0	0	0	-12.96466082571293	0	74.72331861192043	45.19871671525873	0	0	0	-12.96466082571293	0	74.72331861192043	45.19871671525873	0	0
2.859999999999983	-2.359431612321672	-10.4511650848395	177.7674519758848	0	0.9399999999999999	0	2.521638070488353	-6.798312363179138	28.60849678255404	0.08426166968560611	0.001470643569241722	-5.008995857638221	0	0	-9.174961531574095	2.485168031956518	-26.69101965323718	0.01591549354718481	0.0002777777644782864	-5.008995857638221	0	0	0	0	0	0	-12.96533095199757	0	74.72349402082342	45.1983799557653	0	0	0	-12.96533095199757	0	74.72349402082342	45.1983799557653	0	0
2.869999999999983	-2.318640634627653	-10.45026347145871	177.6162299637891	0	0.9399999999999999	0	2.554445514617808	-6.783926549730474	28.75980993143637	0.08407276769813683	0.001467346607596822	-5.008978217341935	0	0	-9.092893691164624	2.505352449680954	-26.82306111081374	0.01592546639136456	0.0002779518234450115	-5.008978217341935	0	0	0	0	0	0	-12.9658315088682	0	74.72362382450625	45.19813583985916	0	0	0	-12.9658315088682	0	74.72362382450625	45.19813583985916	0	0
2.879999999999983	-2.317981711387678	-10.45389618114521	177.3790482353943	0	0.9399999999999999	0	2.587888200152019	-6.774951377903739	29.0084016639946	0.08499598402574812	0.001483459772221809	-5.008954654783435	0	0	-9.07995535267073	2.547249168282494	-27.06231770720752	0.01592850168992038	0.0002780047993985915	-5.008954654783435	0	0	0	0	0	0	-12.96647798565216	0	74.72379273832119	45.19781305620086	0	0	0	-12.96647798565216	0	74.72379273832119	45.19781305620086	0	0
2.889999999999982	-2.300255367691961	-10.46746946025483	177.1746093731558	0	0.9399999999999999	0	2.617485778056348	-6.774868703876752	29.2122538554087	0.08594605359760413	0.00150004161437371	-5.008928943223465	0	0	-9.042549292297904	2.57990864394657	-27.26036469775461	0.01592772289199097	0.0002779912068105155	-5.008928943223465	0	0	0	0	0	0	-12.96717720988847	0	74.7239758143886	45.19746172114528	0	0	0	-12.96717720988847	0	74.7239758143886	45.19746172114528	0	0
2.899999999999982	-2.261239410713285	-10.47002238378007	177.0281285085977	0	0.9399999999999999	0	2.654633608518471	-6.773686418475044	29.35437668493041	0.08653091123090988	0.001510249305730317	-5.008912379949409	0	0	-8.979011610584841	2.596204498025398	-27.38508020331324	0.0159519755493191	0.0002784144955332494	-5.008912379949409	0	0	0	0	0	0	-12.96765030621097	0	74.7240983854315	45.19723187974764	0	0	0	-12.96765030621097	0	74.7240983854315	45.19723187974764	0	0
2.909999999999982	-2.252514256179995	-10.47128118069908	176.8214067193251	0	0.9399999999999999	0	2.665647409703761	-6.764950115810164	29.56491304700677	0.08581030291417842	0.001497672317986099	-5.008893850887397	0	0	-8.949498147005325	2.633640426949047	-27.577245699522	0.01598384312684139	0.0002789706896856478	-5.008893850887397	0	0	0	0	0	0	-12.9681724669465	0	74.7242340852556	45.19697578157458	0	0	0	-12.9681724669465	0	74.7242340852556	45.19697578157458	0	0
2.919999999999982	-2.24646769155853	-10.46513506459503	176.6309631374113	0	0.9399999999999999	0	2.669273094482672	-6.752624364640719	29.76301116835939	0.08601120231376934	0.00150117867397424	-5.008876157346681	0	0	-8.932129334215041	2.66903495287372	-27.73774800310542	0.01598201223593142	0.0002789387346110241	-5.008876157346681	0	0	0	0	0	0	-12.9686698646604	0	74.72436342322413	45.19673140070933	0	0	0	-12.9686698646604	0	74.72436342322413	45.19673140070933	0	0
2.929999999999982	-2.233084944414042	-10.4667880314404	176.4667870454161	0	0.9399999999999999	0	2.678582848295902	-6.739000912098344	29.93033779691284	0.0863974617136022	0.0015079201722681	-5.008860455531662	0	0	-8.91509816504095	2.691732865852659	-27.87067066886056	0.01597225775478614	0.0002787684867982153	-5.008860455531662	0	0	0	0	0	0	-12.96911723346203	0	74.72447942479005	45.19651359535553	0	0	0	-12.96911723346203	0	74.72447942479005	45.19651359535553	0	0
2.939999999999981	-2.229020416218601	-10.46210315920012	176.2801222944686	0	0.9399999999999999	0	2.66156659768109	-6.717099785243802	30.10954874994734	0.08535345371489769	0.00148969879527355	-5.008844233566295	0	0	-8.9016006782493	2.71505724081169	-28.03683328329588	0.01597547823861877	0.0002788246948446019	-5.008844233566295	0	0	0	0	0	0	-12.9695806520621	0	74.72459952292127	45.1962883753809	0	0	0	-12.9695806520621	0	74.72459952292127	45.1962883753809	0	0
2.949999999999981	-2.24327587452016	-10.45941384176763	176.0537668168257	0	0.9399999999999999	0	2.626584621744312	-6.693103460119583	30.32280973883046	0.08464728482769565	0.00147737382311673	-5.008825377859564	0	0	-8.911325238228521	2.737485970020389	-28.26300230201594	0.01596973609545324	0.0002787244755402425	-5.008825377859564	0	0	0	0	0	0	-12.97011108944809	0	74.72473746606406	45.19602779192517	0	0	0	-12.97011108944809	0	74.72473746606406	45.19602779192517	0	0
2.959999999999981	-2.224672960841497	-10.44798681874756	175.886357654728	0	0.9399999999999999	0	2.629715912019005	-6.66428340072278	30.48263420494331	0.08387337620427807	0.001463866569528516	-5.008809328746559	0	0	-8.894777857693132	2.750926815556999	-28.42651865573281	0.01596059092414108	0.0002785648621901864	-5.008809328746559	0	0	0	0	0	0	-12.97057095178802	0	74.72485659639348	45.19580468324163	0	0	0	-12.97057095178802	0	74.72485659639348	45.19580468324163	0	0
2.969999999999981	-2.238083979814329	-10.43050800221093	175.6527922826533	0	0.9399999999999999	0	2.613065156102253	-6.62028896201833	30.71461047846005	0.08390939875019754	0.001464495281559762	-5.0087849225187	0	0	-8.90713485283071	2.777560786299643	-28.68339727605223	0.01595250985434605	0.0002784238209151796	-5.0087849225187	0	0	0	0	0	0	-12.9712405938856	0	74.72503180114306	45.19546972038481	0	0	0	-12.9712405938856	0	74.72503180114306	45.19546972038481	0	0
2.97999999999998	-2.21301311846332	-10.40729573625715	175.4904905209914	0	0.9399999999999999	0	2.624731752323007	-6.579516056150204	30.86779191456452	0.08241449309453928	0.001438404255861841	-5.008768161377924	0	0	-8.864003224049958	2.782114121038381	-28.86193881279268	0.01599389944298276	0.0002791462055129362	-5.008768161377924	0	0	0	0	0	0	-12.97171855555275	0	74.7251558254731	45.19523687736345	0	0	0	-12.97171855555275	0	74.7251558254731	45.19523687736345	0	0
2.98999999999998	-2.198310178986834	-10.36803417085251	175.2984614080948	0	0.9399999999999999	0	2.641383502332115	-6.524537300988399	31.06400797587066	0.08204702473456092	0.001431990723083315	-5.008750927304879	0	0	-8.837801077313616	2.780615214751493	-29.07585487259581	0.01601217620292389	0.0002794651951505055	-5.008750927304879	0	0	0	0	0	0	-12.97221116466945	0	74.72528361725877	45.19499721137126	0	0	0	-12.97221116466945	0	74.72528361725877	45.19499721137126	0	0
2.99999999999998	-2.205471814546962	-10.31422515284762	175.0543537788986	0	0.9399999999999999	0	2.666538134422776	-6.466028185981882	31.32229879404964	0.08244036051505355	0.001438855727518813	-5.008726107498282	0	0	-8.845191786797331	2.780866383483165	-29.35610459485988	0.01602246140990659	0.0002796447058766027	-5.008726107498282	0	0	0	0	0	0	-12.97289430763329	0	74.7254623622965	45.19465591447072	0	0	0	-12.97289430763329	0	74.7254623622965	45.19465591447072	0	0
3.00999999999998	-2.184114181914733	-10.26918140015476	174.8661034109651	0	0.9399999999999999	0	2.706493504140245	-6.424034490300015	31.51585718229142	0.08232861447621911	0.00143690539121509	-5.008703855040562	0	0	-8.809916762328889	2.773060745497835	-29.57672770307833	0.0160330981221575	0.0002798303515269683	-5.008703855040562	0	0	0	0	0	0	-12.97351118755098	0	74.72562354738889	45.1943491657052	0	0	0	-12.97351118755098	0	74.72562354738889	45.1943491657052	0	0
